<svg width="82" height="56" viewBox="0 0 82 56" fill="none" xmlns="http://www.w3.org/2000/svg">
<path d="M68.0852 22.904C67.3031 24.2604 66.56 25.5529 65.8134 26.843C62.9038 31.8677 59.9919 36.89 57.0823 41.9146C54.4601 46.4433 50.8532 49.9744 46.2741 52.5193C42.9923 54.3431 39.4701 55.4287 35.7452 55.8744C34.4364 56.0309 33.1207 55.9978 31.8074 55.9978C21.3644 55.9978 10.9214 55.9966 0.478466 55.9955C0.0921986 55.9955 -0.00245981 55.8252 0.194491 55.4847C3.47166 49.8293 6.75226 44.175 10.0203 38.5139C10.2058 38.1927 10.4119 38.0785 10.7806 38.0808C16.6204 38.1128 22.4602 38.171 28.2989 38.1368C31.497 38.1185 34.5028 37.3163 37.0861 35.3359C38.6628 34.1269 39.7896 32.5293 40.7251 30.7992C41.34 29.661 41.8667 28.4726 42.516 27.355C43.7607 25.2135 45.5103 23.6651 47.9962 23.112C49.3589 22.8092 50.7581 22.8046 52.1448 22.7989C56.3792 22.784 60.6148 22.7897 64.8493 22.8332C65.8993 22.8446 66.9527 22.8275 68.0841 22.904H68.0852Z" fill="white"/>
<path d="M63.9122 0.0160256C69.5391 0.0160256 75.1659 0.0160256 80.7927 0.0160256C81.3515 0.0160256 81.3526 0.018311 81.0698 0.506261C77.7778 6.18911 74.4823 11.8708 71.1994 17.5582C71.0322 17.8485 70.8559 17.9525 70.5215 17.9479C66.7623 17.8965 63.0019 17.8885 59.2438 17.8131C56.4166 17.7571 53.5895 17.6794 50.7646 17.7708C48.4665 17.8451 46.1935 18.157 44.0992 19.1958C41.1209 20.6733 39.0758 23.0617 37.5598 25.9505C36.93 27.1504 36.409 28.4051 35.6693 29.549C34.2918 31.6814 32.2558 32.719 29.8077 33.0161C27.7237 33.2686 25.6236 33.0858 23.5305 33.1258C21.5736 33.1635 19.6167 33.1269 17.6586 33.1361C16.3601 33.1418 15.0616 33.1715 13.7631 33.1841C13.1242 33.1909 13.1219 33.1841 13.4322 32.647C15.9822 28.2417 18.5243 23.833 21.0881 19.4358C22.4381 17.1194 23.6644 14.7242 25.1748 12.5062C29.6222 5.97428 35.7677 1.97811 43.5358 0.460552C45.1893 0.139442 46.86 -0.00225829 48.5455 2.71904e-05C53.6674 0.00688363 58.7904 0.00231267 63.9122 0.00231267C63.9122 0.00688363 63.9122 0.0114546 63.9122 0.0160256Z" fill="white"/>
</svg>
